<?xml version="1.0" encoding="utf-8"?>
<!-- Generator: Adobe Illustrator 20.1.0, SVG Export Plug-In . SVG Version: 6.00 Build 0)  -->
<svg version="1.1" id="Capa_1" xmlns="http://www.w3.org/2000/svg" xmlns:xlink="http://www.w3.org/1999/xlink" x="0px" y="0px"
	 viewBox="0 0 612 612" style="enable-background:new 0 0 612 612;" xml:space="preserve">
<style type="text/css">
	.st0{fill:#FFFFFF;}
</style>
<g>
	<g id="_x37__22_">
		<g>
			<path class="st0" d="M605.7,267.8h-35C552.2,138.1,441,38.4,306.2,38.4C202.1,38.4,112,98,67.8,184.9l71.8,27.6
				c32.7-58.2,95-97.6,166.6-97.6c92.5,0,169.6,65.7,187.3,152.9h-46.1c-5.9,5.7-11.6,9.3-3.1,19.2l71.3,72.5
				c5.9,5.7,15.5,5.7,21.4,0l71.8-72.5C614.7,281.3,611.6,273.5,605.7,267.8z M306.2,497.1c-85.6,0-158-56.3-182.4-133.8h41.8
				c5.9-5.7,9-13.5,3.1-19.2L97,271.6c-5.9-5.7-15.5-5.7-21.4,0L4.3,344.1c-8.5,9.9-2.8,13.5,3.1,19.2h35.1
				c20.7,113.4,130.8,210.3,263.8,210.3c97.3,0,182.3-52.2,229.1-129.9L463,415.2C428.5,464.7,371.2,497.1,306.2,497.1z"/>
		</g>
	</g>
</g>
</svg>
